<mxfile host="app.diagrams.net" agent="Mozilla/5.0 (Windows NT 10.0; Win64; x64) AppleWebKit/537.36 (KHTML, like Gecko) Chrome/131.0.0.0 Safari/537.36" version="25.0.1">
  <diagram name="Page-1" id="Hm0ToPTxWkiHeuvcof_1">
    <mxGraphModel dx="1114" dy="550" grid="1" gridSize="10" guides="1" tooltips="1" connect="1" arrows="1" fold="1" page="1" pageScale="1" pageWidth="850" pageHeight="1100" math="0" shadow="0">
      <root>
        <mxCell id="0" />
        <mxCell id="1" parent="0" />
        <mxCell id="046ivCHnTyqO1sq3YImw-5" value="" style="edgeStyle=orthogonalEdgeStyle;rounded=0;orthogonalLoop=1;jettySize=auto;html=1;" edge="1" parent="1" source="046ivCHnTyqO1sq3YImw-1" target="046ivCHnTyqO1sq3YImw-4">
          <mxGeometry relative="1" as="geometry" />
        </mxCell>
        <mxCell id="046ivCHnTyqO1sq3YImw-6" value="Signature&amp;nbsp;&lt;div&gt;+&lt;br&gt;body&lt;/div&gt;" style="edgeLabel;html=1;align=center;verticalAlign=middle;resizable=0;points=[];" vertex="1" connectable="0" parent="046ivCHnTyqO1sq3YImw-5">
          <mxGeometry x="-0.2355" y="3" relative="1" as="geometry">
            <mxPoint as="offset" />
          </mxGeometry>
        </mxCell>
        <mxCell id="046ivCHnTyqO1sq3YImw-1" value="API&amp;nbsp; Call" style="rounded=0;whiteSpace=wrap;html=1;" vertex="1" parent="1">
          <mxGeometry x="160" y="270" width="120" height="60" as="geometry" />
        </mxCell>
        <mxCell id="046ivCHnTyqO1sq3YImw-3" style="edgeStyle=orthogonalEdgeStyle;rounded=0;orthogonalLoop=1;jettySize=auto;html=1;" edge="1" parent="1" source="046ivCHnTyqO1sq3YImw-2" target="046ivCHnTyqO1sq3YImw-1">
          <mxGeometry relative="1" as="geometry" />
        </mxCell>
        <mxCell id="046ivCHnTyqO1sq3YImw-2" value="Sign Message" style="rounded=0;whiteSpace=wrap;html=1;" vertex="1" parent="1">
          <mxGeometry x="160" y="90" width="120" height="60" as="geometry" />
        </mxCell>
        <mxCell id="046ivCHnTyqO1sq3YImw-8" value="" style="edgeStyle=orthogonalEdgeStyle;rounded=0;orthogonalLoop=1;jettySize=auto;html=1;" edge="1" parent="1" source="046ivCHnTyqO1sq3YImw-4">
          <mxGeometry relative="1" as="geometry">
            <mxPoint x="490" y="390" as="targetPoint" />
          </mxGeometry>
        </mxCell>
        <mxCell id="046ivCHnTyqO1sq3YImw-4" value="Server" style="rounded=1;whiteSpace=wrap;html=1;" vertex="1" parent="1">
          <mxGeometry x="430" y="270" width="120" height="60" as="geometry" />
        </mxCell>
        <mxCell id="046ivCHnTyqO1sq3YImw-9" value="Verify Signatture" style="rhombus;whiteSpace=wrap;html=1;" vertex="1" parent="1">
          <mxGeometry x="419" y="390" width="140" height="130" as="geometry" />
        </mxCell>
      </root>
    </mxGraphModel>
  </diagram>
</mxfile>
